<svg xmlns="http://www.w3.org/2000/svg" width="800" height="400" viewBox="0 0 800 400">
  <rect width="800" height="400" fill="#f1f5f9"/>
  <line x1="80" y1="80" x2="720" y2="80" stroke="#475569" stroke-width="2" stroke-dasharray="12 8" opacity="0.15"/>
  <line x1="80" y1="140" x2="720" y2="140" stroke="#475569" stroke-width="2" stroke-dasharray="12 8" opacity="0.2"/>
  <line x1="80" y1="300" x2="720" y2="300" stroke="#475569" stroke-width="2" stroke-dasharray="12 8" opacity="0.15"/>
  <line x1="80" y1="340" x2="720" y2="340" stroke="#475569" stroke-width="2" stroke-dasharray="12 8" opacity="0.1"/>
  <rect x="120" y="180" width="40" height="160" rx="4" fill="#475569" opacity="0.12"/>
  <rect x="200" y="120" width="40" height="220" rx="4" fill="#475569" opacity="0.18"/>
  <rect x="280" y="90" width="40" height="250" rx="4" fill="#475569" opacity="0.25"/>
  <rect x="360" y="60" width="40" height="280" rx="4" fill="#475569" opacity="0.3"/>
  <rect x="520" y="150" width="40" height="190" rx="4" fill="#475569" opacity="0.15"/>
  <rect x="600" y="200" width="40" height="140" rx="4" fill="#475569" opacity="0.1"/>
  <rect x="680" y="240" width="40" height="100" rx="4" fill="#475569" opacity="0.08"/>
  <line x1="60" y1="260" x2="760" y2="260" stroke="#475569" stroke-width="3" opacity="0.35"/>
  <text x="400" y="210" text-anchor="middle" font-family="system-ui" font-size="36" font-weight="600" fill="#475569">API 限流</text>
</svg>
