<svg xmlns="http://www.w3.org/2000/svg" width="800" height="400" viewBox="0 0 800 400">
  <rect width="800" height="400" fill="#1c1004"/>
  <rect x="100" y="130" width="100" height="60" rx="10" fill="#d97706" opacity="0.5"/>
  <rect x="260" y="130" width="100" height="60" rx="10" fill="#d97706" opacity="0.6"/>
  <rect x="420" y="130" width="100" height="60" rx="10" fill="#d97706" opacity="0.7"/>
  <rect x="580" y="130" width="100" height="60" rx="10" fill="#d97706" opacity="0.8"/>
  <polygon points="205,155 240,160 205,165" fill="#fbbf24" opacity="0.7"/>
  <line x1="200" y1="160" x2="260" y2="160" stroke="#fbbf24" stroke-width="2" opacity="0.5"/>
  <polygon points="365,155 400,160 365,165" fill="#fbbf24" opacity="0.7"/>
  <line x1="360" y1="160" x2="420" y2="160" stroke="#fbbf24" stroke-width="2" opacity="0.5"/>
  <polygon points="525,155 560,160 525,165" fill="#fbbf24" opacity="0.7"/>
  <line x1="520" y1="160" x2="580" y2="160" stroke="#fbbf24" stroke-width="2" opacity="0.5"/>
  <text x="150" y="165" text-anchor="middle" font-family="system-ui" font-size="14" fill="#fef3c7">Code</text>
  <text x="310" y="165" text-anchor="middle" font-family="system-ui" font-size="14" fill="#fef3c7">Build</text>
  <text x="470" y="165" text-anchor="middle" font-family="system-ui" font-size="14" fill="#fef3c7">Test</text>
  <text x="630" y="165" text-anchor="middle" font-family="system-ui" font-size="14" fill="#fef3c7">Deploy</text>
  <circle cx="150" cy="240" r="15" fill="#d97706" opacity="0.3"/>
  <circle cx="310" cy="240" r="15" fill="#d97706" opacity="0.3"/>
  <circle cx="470" cy="240" r="15" fill="#d97706" opacity="0.3"/>
  <circle cx="630" cy="240" r="15" fill="#d97706" opacity="0.3"/>
  <line x1="150" y1="225" x2="150" y2="195" stroke="#fbbf24" stroke-width="1" opacity="0.4"/>
  <line x1="310" y1="225" x2="310" y2="195" stroke="#fbbf24" stroke-width="1" opacity="0.4"/>
  <line x1="470" y1="225" x2="470" y2="195" stroke="#fbbf24" stroke-width="1" opacity="0.4"/>
  <line x1="630" y1="225" x2="630" y2="195" stroke="#fbbf24" stroke-width="1" opacity="0.4"/>
  <path d="M680,160 Q720,160 720,130 Q720,100 680,100" fill="none" stroke="#fbbf24" stroke-width="1.5" opacity="0.3" stroke-dasharray="5,3"/>
  <polygon points="685,96 675,100 685,104" fill="#fbbf24" opacity="0.4"/>
  <text x="400" y="360" text-anchor="middle" font-family="system-ui" font-size="30" font-weight="700" fill="#fde68a">CI/CD 流水线实践</text>
</svg>