<svg xmlns="http://www.w3.org/2000/svg" width="800" height="400" viewBox="0 0 800 400">
  <rect width="800" height="400" fill="#f7fee7"/>
  <ellipse cx="650" cy="100" rx="120" ry="60" transform="rotate(-30 650 100)" fill="#65a30d" opacity="0.1"/>
  <ellipse cx="150" cy="320" rx="100" ry="50" transform="rotate(20 150 320)" fill="#65a30d" opacity="0.12"/>
  <path d="M700 350 Q720 280 680 250 Q640 220 660 150" stroke="#65a30d" stroke-width="3" fill="none" opacity="0.15"/>
  <circle cx="680" cy="80" r="50" fill="#65a30d" opacity="0.08"/>
  <circle cx="120" cy="340" r="40" fill="#65a30d" opacity="0.1"/>
  <line x1="680" y1="30" x2="680" y2="130" stroke="#65a30d" stroke-width="1.5" opacity="0.12"/>
  <line x1="630" y1="80" x2="730" y2="80" stroke="#65a30d" stroke-width="1.5" opacity="0.12"/>
  <line x1="645" y1="45" x2="715" y2="115" stroke="#65a30d" stroke-width="1.5" opacity="0.12"/>
  <line x1="715" y1="45" x2="645" y2="115" stroke="#65a30d" stroke-width="1.5" opacity="0.12"/>
  <rect x="300" y="60" width="20" height="20" transform="rotate(45 310 70)" fill="#65a30d" opacity="0.1"/>
  <rect x="500" y="330" width="15" height="15" transform="rotate(45 507 337)" fill="#65a30d" opacity="0.12"/>
  <text x="400" y="210" text-anchor="middle" font-family="system-ui" font-size="36" font-weight="600" fill="#65a30d">Deno Fresh</text>
</svg>
