<svg xmlns="http://www.w3.org/2000/svg" width="800" height="400" viewBox="0 0 800 400">
  <rect width="800" height="400" fill="#f5f3ff"/>
  <circle cx="200" cy="120" r="70" fill="none" stroke="#7c3aed" stroke-width="2" opacity="0.15"/>
  <circle cx="260" cy="120" r="70" fill="none" stroke="#7c3aed" stroke-width="2" opacity="0.15"/>
  <circle cx="230" cy="170" r="70" fill="none" stroke="#7c3aed" stroke-width="2" opacity="0.1"/>
  <rect x="560" y="60" width="50" height="50" rx="8" fill="#7c3aed" opacity="0.08"/>
  <rect x="620" y="60" width="50" height="50" rx="8" fill="#7c3aed" opacity="0.12"/>
  <rect x="680" y="60" width="50" height="50" rx="8" fill="#7c3aed" opacity="0.08"/>
  <rect x="560" y="120" width="50" height="50" rx="8" fill="#7c3aed" opacity="0.12"/>
  <rect x="620" y="120" width="50" height="50" rx="8" fill="#7c3aed" opacity="0.16"/>
  <rect x="680" y="120" width="50" height="50" rx="8" fill="#7c3aed" opacity="0.12"/>
  <polygon points="100,380 140,310 180,380" fill="#7c3aed" opacity="0.08"/>
  <polygon points="180,380 220,310 260,380" fill="#7c3aed" opacity="0.12"/>
  <polygon points="260,380 300,310 340,380" fill="#7c3aed" opacity="0.08"/>
  <text x="400" y="210" text-anchor="middle" font-family="system-ui" font-size="36" font-weight="600" fill="#7c3aed">设计模式</text>
</svg>
