<svg xmlns="http://www.w3.org/2000/svg" width="800" height="400" viewBox="0 0 800 400">
  <rect width="800" height="400" fill="#022c22"/>
  <polygon points="150,250 250,120 350,200 450,80 550,150 650,60" fill="none" stroke="#059669" stroke-width="3" opacity="0.7"/>
  <polygon points="150,250 250,180 350,220 450,160 550,200 650,140" fill="none" stroke="#34d399" stroke-width="2" opacity="0.5" stroke-dasharray="8,4"/>
  <circle cx="450" cy="80" r="6" fill="#10b981"/>
  <circle cx="650" cy="60" r="6" fill="#10b981"/>
  <circle cx="550" cy="150" r="5" fill="#059669"/>
  <polygon points="680,80 720,100 680,120" fill="#059669" opacity="0.6"/>
  <polygon points="700,60 740,80 700,100" fill="#059669" opacity="0.4"/>
  <rect x="100" y="100" width="8" height="150" rx="4" fill="#059669" opacity="0.3"/>
  <rect x="120" y="130" width="8" height="120" rx="4" fill="#059669" opacity="0.4"/>
  <rect x="140" y="160" width="8" height="90" rx="4" fill="#059669" opacity="0.5"/>
  <line x1="100" y1="260" x2="700" y2="260" stroke="#059669" stroke-width="1" opacity="0.3"/>
  <text x="400" y="360" text-anchor="middle" font-family="system-ui" font-size="30" font-weight="700" fill="#6ee7b7">前端性能优化指南</text>
</svg>