<svg xmlns="http://www.w3.org/2000/svg" width="800" height="400" viewBox="0 0 800 400">
  <rect width="800" height="400" fill="#1c0a1a"/>
  <text x="400" y="160" text-anchor="middle" font-family="serif" font-size="120" font-weight="700" fill="#e11d48" opacity="0.6">&#955;</text>
  <circle cx="250" cy="140" r="40" fill="none" stroke="#f43f5e" stroke-width="2" opacity="0.3"/>
  <circle cx="550" cy="140" r="40" fill="none" stroke="#f43f5e" stroke-width="2" opacity="0.3"/>
  <line x1="290" y1="140" x2="510" y2="140" stroke="#fb7185" stroke-width="1.5" opacity="0.3"/>
  <polygon points="505,135 515,140 505,145" fill="#fb7185" opacity="0.4"/>
  <text x="250" y="148" text-anchor="middle" font-family="serif" font-size="28" fill="#fb7185" opacity="0.5">f</text>
  <text x="550" y="148" text-anchor="middle" font-family="serif" font-size="28" fill="#fb7185" opacity="0.5">g</text>
  <rect x="150" y="220" width="60" height="35" rx="6" fill="#e11d48" opacity="0.2"/>
  <rect x="250" y="220" width="60" height="35" rx="6" fill="#e11d48" opacity="0.25"/>
  <rect x="350" y="220" width="60" height="35" rx="6" fill="#e11d48" opacity="0.3"/>
  <rect x="490" y="220" width="60" height="35" rx="6" fill="#e11d48" opacity="0.2"/>
  <rect x="590" y="220" width="60" height="35" rx="6" fill="#e11d48" opacity="0.25"/>
  <line x1="210" y1="237" x2="250" y2="237" stroke="#fb7185" stroke-width="1" opacity="0.4"/>
  <line x1="310" y1="237" x2="350" y2="237" stroke="#fb7185" stroke-width="1" opacity="0.4"/>
  <line x1="410" y1="237" x2="430" y2="237" stroke="#fb7185" stroke-width="1" opacity="0.4" stroke-dasharray="4,3"/>
  <line x1="460" y1="237" x2="490" y2="237" stroke="#fb7185" stroke-width="1" opacity="0.4" stroke-dasharray="4,3"/>
  <line x1="550" y1="237" x2="590" y2="237" stroke="#fb7185" stroke-width="1" opacity="0.4"/>
  <text x="400" y="360" text-anchor="middle" font-family="system-ui" font-size="30" font-weight="700" fill="#fda4af">函数式编程思想</text>
</svg>