<svg xmlns="http://www.w3.org/2000/svg" width="800" height="400" viewBox="0 0 800 400">
  <rect width="800" height="400" fill="#2d1507"/>
  <line x1="200" y1="180" x2="600" y2="180" stroke="#f05033" stroke-width="4" opacity="0.8"/>
  <line x1="350" y1="180" x2="450" y2="100" stroke="#f97316" stroke-width="3" opacity="0.6"/>
  <line x1="450" y1="100" x2="550" y2="100" stroke="#f97316" stroke-width="3" opacity="0.6"/>
  <line x1="550" y1="100" x2="600" y2="180" stroke="#f97316" stroke-width="3" opacity="0.6"/>
  <line x1="300" y1="180" x2="350" y2="260" stroke="#fb923c" stroke-width="3" opacity="0.5"/>
  <line x1="350" y1="260" x2="500" y2="260" stroke="#fb923c" stroke-width="3" opacity="0.5"/>
  <circle cx="200" cy="180" r="12" fill="#f05033"/>
  <circle cx="300" cy="180" r="12" fill="#f05033"/>
  <circle cx="350" cy="180" r="12" fill="#f05033"/>
  <circle cx="450" cy="180" r="12" fill="#f05033"/>
  <circle cx="600" cy="180" r="14" fill="#ef4444"/>
  <circle cx="450" cy="100" r="10" fill="#f97316"/>
  <circle cx="550" cy="100" r="10" fill="#f97316"/>
  <circle cx="350" cy="260" r="10" fill="#fb923c"/>
  <circle cx="500" cy="260" r="10" fill="#fb923c"/>
  <rect x="80" y="60" width="50" height="25" rx="4" fill="#f05033" opacity="0.3"/>
  <rect x="670" y="60" width="50" height="25" rx="4" fill="#f05033" opacity="0.3"/>
  <text x="400" y="360" text-anchor="middle" font-family="system-ui" font-size="30" font-weight="700" fill="#fdba74">Git 工作流最佳实践</text>
</svg>