<svg xmlns="http://www.w3.org/2000/svg" width="800" height="400" viewBox="0 0 800 400">
  <rect width="800" height="400" fill="#0f2440"/>
  <circle cx="400" cy="180" r="80" fill="none" stroke="#3b82f6" stroke-width="3" opacity="0.6"/>
  <circle cx="400" cy="180" r="50" fill="#1e3a5f"/>
  <polygon points="400,140 420,170 420,195 400,210 380,195 380,170" fill="#3b82f6" opacity="0.8"/>
  <circle cx="260" cy="120" r="25" fill="#1e3a5f" stroke="#60a5fa" stroke-width="2"/>
  <circle cx="540" cy="120" r="25" fill="#1e3a5f" stroke="#60a5fa" stroke-width="2"/>
  <circle cx="260" cy="250" r="25" fill="#1e3a5f" stroke="#60a5fa" stroke-width="2"/>
  <circle cx="540" cy="250" r="25" fill="#1e3a5f" stroke="#60a5fa" stroke-width="2"/>
  <line x1="285" y1="130" x2="350" y2="160" stroke="#60a5fa" stroke-width="1.5" opacity="0.5"/>
  <line x1="515" y1="130" x2="450" y2="160" stroke="#60a5fa" stroke-width="1.5" opacity="0.5"/>
  <line x1="285" y1="240" x2="350" y2="210" stroke="#60a5fa" stroke-width="1.5" opacity="0.5"/>
  <line x1="515" y1="240" x2="450" y2="210" stroke="#60a5fa" stroke-width="1.5" opacity="0.5"/>
  <rect x="100" y="80" width="40" height="40" rx="6" fill="#1e3a5f" opacity="0.4"/>
  <rect x="660" y="80" width="40" height="40" rx="6" fill="#1e3a5f" opacity="0.4"/>
  <rect x="100" y="260" width="40" height="40" rx="6" fill="#1e3a5f" opacity="0.4"/>
  <rect x="660" y="260" width="40" height="40" rx="6" fill="#1e3a5f" opacity="0.4"/>
  <text x="400" y="360" text-anchor="middle" font-family="system-ui" font-size="30" font-weight="700" fill="#93c5fd">Kubernetes 基础概念</text>
</svg>