<svg xmlns="http://www.w3.org/2000/svg" width="800" height="400" viewBox="0 0 800 400">
  <rect width="800" height="400" fill="#ecfdf5"/>
  <rect x="100" y="50" width="200" height="60" rx="6" fill="#059669" opacity="0.1"/>
  <polygon points="100,110 300,110 270,160 130,160" fill="#059669" opacity="0.08"/>
  <rect x="130" y="160" width="140" height="50" rx="6" fill="#059669" opacity="0.12"/>
  <polygon points="130,210 270,210 250,250 150,250" fill="#059669" opacity="0.08"/>
  <rect x="150" y="250" width="100" height="40" rx="6" fill="#059669" opacity="0.15"/>
  <circle cx="580" cy="80" r="8" fill="#059669" opacity="0.12"/>
  <circle cx="620" cy="80" r="8" fill="#059669" opacity="0.1"/>
  <circle cx="660" cy="80" r="8" fill="#059669" opacity="0.08"/>
  <circle cx="700" cy="80" r="8" fill="#059669" opacity="0.12"/>
  <circle cx="600" cy="120" r="8" fill="#059669" opacity="0.1"/>
  <circle cx="640" cy="120" r="8" fill="#059669" opacity="0.15"/>
  <circle cx="680" cy="120" r="8" fill="#059669" opacity="0.1"/>
  <circle cx="630" cy="310" r="12" fill="#059669" opacity="0.2"/>
  <circle cx="670" cy="310" r="12" fill="#059669" opacity="0.15"/>
  <text x="400" y="210" text-anchor="middle" font-family="system-ui" font-size="36" font-weight="600" fill="#059669">MongoDB</text>
</svg>
