<svg xmlns="http://www.w3.org/2000/svg" width="800" height="400" viewBox="0 0 800 400">
  <rect width="800" height="400" fill="#fafafa"/>
  <line x1="160" y1="80" x2="160" y2="340" stroke="#171717" stroke-width="2" opacity="0.08"/>
  <line x1="160" y1="120" x2="280" y2="120" stroke="#171717" stroke-width="2" opacity="0.1"/>
  <line x1="160" y1="180" x2="280" y2="180" stroke="#171717" stroke-width="2" opacity="0.1"/>
  <line x1="280" y1="180" x2="280" y2="260" stroke="#171717" stroke-width="2" opacity="0.08"/>
  <line x1="280" y1="220" x2="380" y2="220" stroke="#171717" stroke-width="2" opacity="0.1"/>
  <line x1="280" y1="260" x2="380" y2="260" stroke="#171717" stroke-width="2" opacity="0.1"/>
  <line x1="160" y1="310" x2="280" y2="310" stroke="#171717" stroke-width="2" opacity="0.1"/>
  <rect x="135" y="68" width="50" height="24" rx="4" fill="#171717" opacity="0.08"/>
  <rect x="265" y="108" width="70" height="24" rx="4" fill="#171717" opacity="0.1"/>
  <rect x="265" y="168" width="70" height="24" rx="4" fill="#171717" opacity="0.1"/>
  <rect x="365" y="208" width="80" height="24" rx="4" fill="#171717" opacity="0.12"/>
  <rect x="365" y="248" width="80" height="24" rx="4" fill="#171717" opacity="0.08"/>
  <rect x="265" y="298" width="70" height="24" rx="4" fill="#171717" opacity="0.1"/>
  <path d="M620 60 L620 140 L680 60 L680 140" stroke="#171717" stroke-width="4" fill="none" opacity="0.1"/>
  <text x="400" y="210" text-anchor="middle" font-family="system-ui" font-size="36" font-weight="600" fill="#171717">Next.js</text>
</svg>
