<svg xmlns="http://www.w3.org/2000/svg" width="800" height="400" viewBox="0 0 800 400">
  <rect width="800" height="400" fill="#0d3321"/>
  <path d="M0,200 Q100,120 200,200 Q300,280 400,200 Q500,120 600,200 Q700,280 800,200" fill="none" stroke="#68a063" stroke-width="4" opacity="0.8"/>
  <path d="M0,230 Q100,150 200,230 Q300,310 400,230 Q500,150 600,230 Q700,310 800,230" fill="none" stroke="#3c873a" stroke-width="3" opacity="0.5"/>
  <path d="M0,170 Q100,90 200,170 Q300,250 400,170 Q500,90 600,170 Q700,250 800,170" fill="none" stroke="#8cc84b" stroke-width="3" opacity="0.4"/>
  <circle cx="150" cy="100" r="30" fill="#68a063" opacity="0.6"/>
  <circle cx="400" cy="80" r="20" fill="#8cc84b" opacity="0.5"/>
  <circle cx="650" cy="110" r="35" fill="#3c873a" opacity="0.4"/>
  <text x="400" y="365" text-anchor="middle" font-family="system-ui" font-size="30" font-weight="700" fill="#8cc84b">Node.js 流处理完全指南</text>
</svg>
