<svg xmlns="http://www.w3.org/2000/svg" width="800" height="400" viewBox="0 0 800 400">
  <rect width="800" height="400" fill="#042f2e"/>
  <rect x="340" y="80" width="120" height="150" rx="60" fill="none" stroke="#0d9488" stroke-width="4" opacity="0.7"/>
  <rect x="360" y="160" width="80" height="90" rx="8" fill="#0d9488" opacity="0.6"/>
  <circle cx="400" cy="130" r="25" fill="#14b8a6" opacity="0.5"/>
  <circle cx="400" cy="195" r="8" fill="#042f2e"/>
  <rect x="396" y="195" width="8" height="25" rx="2" fill="#042f2e"/>
  <polygon points="300,100 310,85 320,100" fill="#0d9488" opacity="0.3"/>
  <polygon points="480,100 490,85 500,100" fill="#0d9488" opacity="0.3"/>
  <rect x="150" y="120" width="100" height="60" rx="8" fill="#0d9488" opacity="0.2"/>
  <rect x="550" y="120" width="100" height="60" rx="8" fill="#0d9488" opacity="0.2"/>
  <line x1="250" y1="150" x2="340" y2="150" stroke="#14b8a6" stroke-width="2" opacity="0.4" stroke-dasharray="6,4"/>
  <line x1="460" y1="150" x2="550" y2="150" stroke="#14b8a6" stroke-width="2" opacity="0.4" stroke-dasharray="6,4"/>
  <polygon points="335,145 345,150 335,155" fill="#14b8a6" opacity="0.5"/>
  <polygon points="555,145 545,150 555,155" fill="#14b8a6" opacity="0.5"/>
  <circle cx="120" cy="80" r="15" fill="#0d9488" opacity="0.15"/>
  <circle cx="680" cy="80" r="15" fill="#0d9488" opacity="0.15"/>
  <text x="400" y="360" text-anchor="middle" font-family="system-ui" font-size="30" font-weight="700" fill="#5eead4">OAuth 2.0 认证机制</text>
</svg>