<svg xmlns="http://www.w3.org/2000/svg" width="800" height="400" viewBox="0 0 800 400">
  <rect width="800" height="400" fill="#1e293b"/>
  <rect x="350" y="40" width="100" height="50" rx="6" fill="#336791" opacity="0.9"/>
  <line x1="400" y1="90" x2="250" y2="130" stroke="#336791" stroke-width="2"/>
  <line x1="400" y1="90" x2="550" y2="130" stroke="#336791" stroke-width="2"/>
  <rect x="200" y="130" width="100" height="40" rx="6" fill="#336791" opacity="0.7"/>
  <rect x="500" y="130" width="100" height="40" rx="6" fill="#336791" opacity="0.7"/>
  <line x1="250" y1="170" x2="150" y2="210" stroke="#336791" stroke-width="2"/>
  <line x1="250" y1="170" x2="350" y2="210" stroke="#336791" stroke-width="2"/>
  <line x1="550" y1="170" x2="450" y2="210" stroke="#336791" stroke-width="2"/>
  <line x1="550" y1="170" x2="650" y2="210" stroke="#336791" stroke-width="2"/>
  <rect x="110" y="210" width="80" height="35" rx="4" fill="#336791" opacity="0.5"/>
  <rect x="310" y="210" width="80" height="35" rx="4" fill="#336791" opacity="0.5"/>
  <rect x="410" y="210" width="80" height="35" rx="4" fill="#336791" opacity="0.5"/>
  <rect x="610" y="210" width="80" height="35" rx="4" fill="#336791" opacity="0.5"/>
  <circle cx="700" cy="80" r="30" fill="#f0c040" opacity="0.4"/>
  <text x="400" y="360" text-anchor="middle" font-family="system-ui" font-size="30" font-weight="700" fill="#8fb8de">PostgreSQL 索引优化策略</text>
</svg>
