<svg xmlns="http://www.w3.org/2000/svg" width="800" height="400" viewBox="0 0 800 400">
  <rect width="800" height="400" fill="#fff7ed"/>
  <circle cx="620" cy="200" r="140" fill="none" stroke="#ea580c" stroke-width="2" opacity="0.08"/>
  <circle cx="620" cy="200" r="100" fill="none" stroke="#ea580c" stroke-width="2" opacity="0.12"/>
  <circle cx="620" cy="200" r="60" fill="none" stroke="#ea580c" stroke-width="2.5" opacity="0.16"/>
  <circle cx="620" cy="200" r="20" fill="#ea580c" opacity="0.12"/>
  <line x1="620" y1="60" x2="620" y2="340" stroke="#ea580c" stroke-width="1.5" opacity="0.06"/>
  <line x1="480" y1="200" x2="760" y2="200" stroke="#ea580c" stroke-width="1.5" opacity="0.06"/>
  <line x1="521" y1="101" x2="719" y2="299" stroke="#ea580c" stroke-width="1.5" opacity="0.06"/>
  <line x1="719" y1="101" x2="521" y2="299" stroke="#ea580c" stroke-width="1.5" opacity="0.06"/>
  <path d="M80 100 Q140 100 140 150 Q140 200 200 200" stroke="#ea580c" stroke-width="2" fill="none" opacity="0.15"/>
  <path d="M80 200 Q140 200 140 250 Q140 300 200 300" stroke="#ea580c" stroke-width="2" fill="none" opacity="0.12"/>
  <path d="M80 150 Q120 150 120 200 Q120 250 160 250" stroke="#ea580c" stroke-width="2" fill="none" opacity="0.1"/>
  <text x="400" y="210" text-anchor="middle" font-family="system-ui" font-size="36" font-weight="600" fill="#ea580c">Rust 异步</text>
</svg>
