<svg xmlns="http://www.w3.org/2000/svg" width="800" height="400" viewBox="0 0 800 400">
  <rect width="800" height="400" fill="#ecfeff"/>
  <circle cx="150" cy="100" r="35" fill="#0891b2" opacity="0.1"/>
  <circle cx="150" cy="100" r="35" fill="none" stroke="#0891b2" stroke-width="2" opacity="0.15"/>
  <circle cx="650" cy="100" r="35" fill="#0891b2" opacity="0.1"/>
  <circle cx="650" cy="100" r="35" fill="none" stroke="#0891b2" stroke-width="2" opacity="0.15"/>
  <circle cx="150" cy="330" r="35" fill="#0891b2" opacity="0.1"/>
  <circle cx="150" cy="330" r="35" fill="none" stroke="#0891b2" stroke-width="2" opacity="0.15"/>
  <circle cx="650" cy="330" r="35" fill="#0891b2" opacity="0.1"/>
  <circle cx="650" cy="330" r="35" fill="none" stroke="#0891b2" stroke-width="2" opacity="0.15"/>
  <line x1="185" y1="100" x2="615" y2="100" stroke="#0891b2" stroke-width="2" opacity="0.12"/>
  <line x1="150" y1="135" x2="150" y2="295" stroke="#0891b2" stroke-width="2" opacity="0.12"/>
  <line x1="650" y1="135" x2="650" y2="295" stroke="#0891b2" stroke-width="2" opacity="0.12"/>
  <line x1="185" y1="330" x2="615" y2="330" stroke="#0891b2" stroke-width="2" opacity="0.12"/>
  <rect x="350" y="160" width="100" height="80" rx="10" fill="#0891b2" opacity="0.08"/>
  <rect x="350" y="160" width="100" height="80" rx="10" fill="none" stroke="#0891b2" stroke-width="2" opacity="0.15"/>
  <line x1="185" y1="120" x2="350" y2="180" stroke="#0891b2" stroke-width="1.5" opacity="0.08" stroke-dasharray="6 4"/>
  <line x1="615" y1="120" x2="450" y2="180" stroke="#0891b2" stroke-width="1.5" opacity="0.08" stroke-dasharray="6 4"/>
  <line x1="185" y1="310" x2="350" y2="240" stroke="#0891b2" stroke-width="1.5" opacity="0.08" stroke-dasharray="6 4"/>
  <line x1="615" y1="310" x2="450" y2="240" stroke="#0891b2" stroke-width="1.5" opacity="0.08" stroke-dasharray="6 4"/>
  <text x="400" y="210" text-anchor="middle" font-family="system-ui" font-size="36" font-weight="600" fill="#0891b2">状态管理</text>
</svg>
