<svg xmlns="http://www.w3.org/2000/svg" width="800" height="400" viewBox="0 0 800 400">
  <rect width="800" height="400" fill="#eff6ff"/>
  <rect x="60" y="50" width="120" height="60" rx="8" fill="#2563eb" opacity="0.08"/>
  <rect x="60" y="50" width="120" height="60" rx="8" fill="none" stroke="#2563eb" stroke-width="1.5" opacity="0.12"/>
  <rect x="60" y="290" width="120" height="60" rx="8" fill="#2563eb" opacity="0.08"/>
  <rect x="60" y="290" width="120" height="60" rx="8" fill="none" stroke="#2563eb" stroke-width="1.5" opacity="0.12"/>
  <rect x="620" y="50" width="120" height="60" rx="8" fill="#2563eb" opacity="0.08"/>
  <rect x="620" y="50" width="120" height="60" rx="8" fill="none" stroke="#2563eb" stroke-width="1.5" opacity="0.12"/>
  <rect x="620" y="290" width="120" height="60" rx="8" fill="#2563eb" opacity="0.1"/>
  <rect x="620" y="290" width="120" height="60" rx="8" fill="none" stroke="#2563eb" stroke-width="1.5" opacity="0.12"/>
  <polygon points="400,50 370,100 430,100" fill="#2563eb" opacity="0.1"/>
  <rect x="350" y="120" width="40" height="30" rx="4" fill="#2563eb" opacity="0.12"/>
  <rect x="400" y="120" width="40" height="30" rx="4" fill="#2563eb" opacity="0.1"/>
  <ellipse cx="400" cy="310" rx="40" ry="12" fill="#2563eb" opacity="0.1"/>
  <rect x="360" y="310" width="80" height="40" fill="#2563eb" opacity="0.08"/>
  <ellipse cx="400" cy="350" rx="40" ry="12" fill="#2563eb" opacity="0.1"/>
  <line x1="180" y1="80" x2="370" y2="80" stroke="#2563eb" stroke-width="1.5" opacity="0.1"/>
  <line x1="430" y1="80" x2="620" y2="80" stroke="#2563eb" stroke-width="1.5" opacity="0.1"/>
  <line x1="400" y1="150" x2="400" y2="300" stroke="#2563eb" stroke-width="1.5" opacity="0.08" stroke-dasharray="5 5"/>
  <text x="400" y="210" text-anchor="middle" font-family="system-ui" font-size="36" font-weight="600" fill="#2563eb">系统设计</text>
</svg>
