<svg xmlns="http://www.w3.org/2000/svg" width="800" height="400" viewBox="0 0 800 400">
  <rect width="800" height="400" fill="#f0f9ff"/>
  <path d="M0 120 Q100 80 200 120 Q300 160 400 120 Q500 80 600 120 Q700 160 800 120" stroke="#0284c7" stroke-width="3" fill="none" opacity="0.1"/>
  <path d="M0 160 Q100 120 200 160 Q300 200 400 160 Q500 120 600 160 Q700 200 800 160" stroke="#0284c7" stroke-width="2.5" fill="none" opacity="0.08"/>
  <path d="M0 280 Q100 240 200 280 Q300 320 400 280 Q500 240 600 280 Q700 320 800 280" stroke="#0284c7" stroke-width="3" fill="none" opacity="0.1"/>
  <path d="M0 320 Q100 280 200 320 Q300 360 400 320 Q500 280 600 320 Q700 360 800 320" stroke="#0284c7" stroke-width="2.5" fill="none" opacity="0.08"/>
  <rect x="80" y="60" width="30" height="30" rx="4" fill="#0284c7" opacity="0.08"/>
  <rect x="118" y="60" width="30" height="30" rx="4" fill="#0284c7" opacity="0.12"/>
  <rect x="156" y="60" width="30" height="30" rx="4" fill="#0284c7" opacity="0.18"/>
  <rect x="194" y="60" width="30" height="30" rx="4" fill="#0284c7" opacity="0.25"/>
  <rect x="580" y="340" width="30" height="30" rx="4" fill="#0284c7" opacity="0.25"/>
  <rect x="618" y="340" width="30" height="30" rx="4" fill="#0284c7" opacity="0.18"/>
  <rect x="656" y="340" width="30" height="30" rx="4" fill="#0284c7" opacity="0.12"/>
  <rect x="694" y="340" width="30" height="30" rx="4" fill="#0284c7" opacity="0.08"/>
  <text x="400" y="210" text-anchor="middle" font-family="system-ui" font-size="36" font-weight="600" fill="#0284c7">Tailwind CSS</text>
</svg>
