<svg xmlns="http://www.w3.org/2000/svg" width="800" height="400" viewBox="0 0 800 400">
  <rect width="800" height="400" fill="#fffbeb"/>
  <path d="M400 50 L480 90 L480 180 Q480 260 400 300 Q320 260 320 180 L320 90 Z" fill="#d97706" opacity="0.06" stroke="#d97706" stroke-width="2" opacity="0.12"/>
  <rect x="620" y="90" width="60" height="50" rx="6" fill="#d97706" opacity="0.1"/>
  <path d="M632 90 L632 72 Q632 55 650 55 Q668 55 668 72 L668 90" fill="none" stroke="#d97706" stroke-width="2.5" opacity="0.15"/>
  <circle cx="650" cy="112" r="5" fill="#d97706" opacity="0.15"/>
  <circle cx="160" cy="310" r="20" fill="none" stroke="#d97706" stroke-width="2" opacity="0.12"/>
  <line x1="180" y1="310" x2="250" y2="310" stroke="#d97706" stroke-width="2" opacity="0.12"/>
  <line x1="230" y1="310" x2="230" y2="325" stroke="#d97706" stroke-width="2" opacity="0.12"/>
  <line x1="245" y1="310" x2="245" y2="320" stroke="#d97706" stroke-width="2" opacity="0.12"/>
  <polygon points="700,300 720,340 680,340" fill="none" stroke="#d97706" stroke-width="2" opacity="0.1"/>
  <line x1="700" y1="315" x2="700" y2="328" stroke="#d97706" stroke-width="2" opacity="0.12"/>
  <circle cx="700" cy="334" r="2" fill="#d97706" opacity="0.12"/>
  <circle cx="80" cy="60" r="3" fill="#d97706" opacity="0.1"/>
  <circle cx="100" cy="60" r="3" fill="#d97706" opacity="0.08"/>
  <circle cx="120" cy="60" r="3" fill="#d97706" opacity="0.1"/>
  <circle cx="80" cy="80" r="3" fill="#d97706" opacity="0.08"/>
  <circle cx="100" cy="80" r="3" fill="#d97706" opacity="0.1"/>
  <circle cx="120" cy="80" r="3" fill="#d97706" opacity="0.08"/>
  <text x="400" y="210" text-anchor="middle" font-family="system-ui" font-size="36" font-weight="600" fill="#d97706">Web 安全</text>
</svg>
