<svg xmlns="http://www.w3.org/2000/svg" width="800" height="400" viewBox="0 0 800 400">
  <rect width="800" height="400" fill="#1e1b4b"/>
  <path d="M100,180 Q200,100 300,180 Q400,260 500,180 Q600,100 700,180" fill="none" stroke="#4f46e5" stroke-width="3" opacity="0.7"/>
  <path d="M100,200 Q200,120 300,200 Q400,280 500,200 Q600,120 700,200" fill="none" stroke="#818cf8" stroke-width="2" opacity="0.4"/>
  <path d="M100,160 Q200,80 300,160 Q400,240 500,160 Q600,80 700,160" fill="none" stroke="#6366f1" stroke-width="2" opacity="0.3"/>
  <rect x="120" y="100" width="80" height="50" rx="8" fill="#4f46e5" opacity="0.5"/>
  <rect x="600" y="100" width="80" height="50" rx="8" fill="#4f46e5" opacity="0.5"/>
  <line x1="200" y1="125" x2="600" y2="125" stroke="#818cf8" stroke-width="1.5" opacity="0.3" stroke-dasharray="10,5"/>
  <circle cx="300" cy="125" r="4" fill="#a5b4fc" opacity="0.6"/>
  <circle cx="400" cy="125" r="4" fill="#a5b4fc" opacity="0.6"/>
  <circle cx="500" cy="125" r="4" fill="#a5b4fc" opacity="0.6"/>
  <polygon points="595,120 605,125 595,130" fill="#818cf8" opacity="0.5"/>
  <polygon points="205,120 195,125 205,130" fill="#818cf8" opacity="0.5"/>
  <circle cx="160" cy="260" r="20" fill="#4f46e5" opacity="0.2"/>
  <circle cx="640" cy="260" r="20" fill="#4f46e5" opacity="0.2"/>
  <text x="400" y="360" text-anchor="middle" font-family="system-ui" font-size="30" font-weight="700" fill="#a5b4fc">WebSocket 实时通信</text>
</svg>